<svg xmlns="http://www.w3.org/2000/svg" viewBox="0 -0.5 16 16" shape-rendering="crispEdges">
<metadata>Made with Pixels to Svg https://codepen.io/shshaw/pen/XbxvNj</metadata>
<path stroke="#0c0c0c" d="M0 0h16M0 1h1M2 1h14M0 2h1M2 2h1M4 2h4M9 2h2M12 2h4M0 3h5M6 3h4M11 3h1M13 3h3M0 4h4M5 4h1M7 4h4M12 4h4M0 5h5M6 5h5M12 5h4M0 6h2M3 6h2M6 6h5M12 6h4M0 7h5M6 7h3M10 7h3M14 7h2M0 8h2M3 8h4M8 8h1M10 8h2M13 8h1M15 8h1M0 9h1M2 9h1M4 9h9M14 9h2M0 10h2M3 10h5M9 10h4M14 10h2M0 11h2M3 11h4M8 11h1M10 11h3M14 11h2M0 12h2M3 12h5M9 12h7M0 13h4M5 13h3M9 13h3M13 13h3M0 14h2M3 14h1M5 14h1M7 14h1M9 14h1M11 14h1M13 14h1M15 14h1M0 15h16" />
<path stroke="#5f7d4a" d="M1 1h1M1 2h1M3 2h1M8 2h1M11 5h1M2 6h1M5 6h1M11 6h1M5 7h1M9 7h1M7 8h1M9 8h1M13 10h1M2 11h1M13 11h1M2 12h1M4 13h1M8 13h1M12 13h1M2 14h1M4 14h1M6 14h1M8 14h1M10 14h1M12 14h1M14 14h1" />
<path stroke="#81c6d4" d="M11 2h1M10 3h1M12 3h1M11 4h1M2 8h1M1 9h1M3 9h1M2 10h1" />
<path stroke="#d16969" d="M5 3h1M4 4h1M6 4h1M5 5h1" />
<path stroke="#ffffff" d="M13 7h1M12 8h1M14 8h1M13 9h1M8 10h1M7 11h1M9 11h1M8 12h1" />
</svg>