<svg xmlns="http://www.w3.org/2000/svg" viewBox="0 -0.5 16 16" shape-rendering="crispEdges">
<metadata>Made with Pixels to Svg https://codepen.io/shshaw/pen/XbxvNj</metadata>
<path stroke="#0c0c0c" d="M0 0h4M12 0h4M0 1h5M8 1h1M11 1h5M0 2h4M6 2h1M12 2h4M0 3h4M8 3h1M12 3h4M2 4h1M14 4h1M6 5h2M1 6h1M6 6h1M11 6h1M13 6h1M3 7h2M2 8h1M8 8h1M13 8h1M5 10h1M14 10h1M2 11h1M11 11h2M0 12h16M0 13h4M5 13h7M13 13h3M0 14h2M3 14h1M5 14h1M7 14h3M11 14h1M13 14h1M15 14h1M0 15h16" />
<path stroke="#704f40" d="M4 0h8M5 1h3M9 1h2M4 2h2M7 2h5M4 3h4M9 3h3M0 4h2M3 4h11M15 4h1M0 5h6M8 5h8M0 6h1M2 6h4M7 6h4M12 6h1M14 6h2M0 7h3M5 7h11M0 8h2M3 8h5M9 8h4M14 8h2M0 9h16M0 10h5M6 10h8M15 10h1M0 11h2M3 11h8M13 11h3" />
<path stroke="#5f7d4a" d="M4 13h1M12 13h1M2 14h1M4 14h1M6 14h1M10 14h1M12 14h1M14 14h1" />
</svg>