<svg xmlns="http://www.w3.org/2000/svg" viewBox="0 -0.5 16 16" shape-rendering="crispEdges">
<metadata>Made with Pixels to Svg https://codepen.io/shshaw/pen/XbxvNj</metadata>
<path stroke="#0c0c0c" d="M0 0h4M12 0h4M0 1h5M10 1h1M12 1h1M14 1h2M0 2h4M6 2h1M8 2h1M12 2h1M14 2h1M0 3h4M11 3h5M1 4h1M6 4h1M11 4h5M12 5h4M12 6h1M14 6h2M1 7h1M3 7h1M8 7h1M12 7h4M5 8h1M12 8h4M2 9h1M5 9h2M13 9h3M10 10h1M13 10h1M15 10h1M1 11h1M7 11h1M12 11h4M0 12h3M7 12h1M12 12h4M0 13h5M8 13h1M11 13h1M13 13h3M0 14h2M3 14h1M6 14h1M13 14h1M15 14h1M0 15h4M12 15h4" />
<path stroke="#704f40" d="M4 0h8M5 1h5M11 1h1M4 2h2M7 2h1M9 2h3M4 3h7M0 4h1M2 4h4M7 4h4M0 5h12M0 6h12M0 7h1M2 7h1M4 7h4M9 7h3M0 8h5M6 8h6M0 9h2M3 9h2M7 9h5M0 10h10M11 10h1M0 11h1M2 11h5M8 11h4M4 12h3M8 12h4M5 13h3M9 13h2M4 14h2M7 14h5M4 15h8" />
<path stroke="#5f7d4a" d="M13 1h1M13 2h1M15 2h1M13 6h1M12 9h1M12 10h1M14 10h1M3 12h1M12 13h1M2 14h1M12 14h1M14 14h1" />
</svg>