<svg xmlns="http://www.w3.org/2000/svg" viewBox="0 -0.5 16 16" shape-rendering="crispEdges">
<metadata>Made with Pixels to Svg https://codepen.io/shshaw/pen/XbxvNj</metadata>
<path stroke="#0c0c0c" d="M0 0h16M0 1h6M7 1h6M14 1h2M0 2h4M5 2h1M7 2h1M9 2h2M12 2h1M14 2h1M0 3h16M0 4h6M10 4h1M12 4h1M0 5h5M0 6h2M3 6h1M8 6h1M0 7h4M13 7h1M0 8h4M7 8h1M11 8h2M0 9h1M2 9h2M7 9h1M0 10h5M0 11h4M9 11h1M11 11h2M14 11h1M0 12h3M6 12h1M8 12h2M12 12h4M0 13h4M5 13h1M11 13h1M13 13h3M0 14h2M3 14h1M8 14h1M13 14h1M15 14h1M0 15h4M12 15h4" />
<path stroke="#5f7d4a" d="M6 1h1M13 1h1M4 2h1M6 2h1M8 2h1M11 2h1M13 2h1M15 2h1M2 6h1M1 9h1M3 12h1M12 13h1M2 14h1M12 14h1M14 14h1" />
<path stroke="#704f40" d="M6 4h4M11 4h1M13 4h3M5 5h11M4 6h4M9 6h7M4 7h9M14 7h2M4 8h3M8 8h3M13 8h3M4 9h3M8 9h8M5 10h11M4 11h5M10 11h1M13 11h1M15 11h1M4 12h2M7 12h1M10 12h2M4 13h1M6 13h5M4 14h4M9 14h3M4 15h8" />
</svg>