<svg xmlns="http://www.w3.org/2000/svg" viewBox="0 -0.5 16 16" shape-rendering="crispEdges">
<metadata>Made with Pixels to Svg https://codepen.io/shshaw/pen/XbxvNj</metadata>
<path stroke="#0c0c0c" d="M0 0h16M0 1h6M7 1h6M14 1h2M0 2h4M5 2h1M7 2h1M9 2h2M12 2h1M14 2h1M0 3h16M3 4h2M9 4h2M13 4h1M1 5h1M8 5h1M2 7h1M7 7h1M13 7h1M11 8h2M2 9h1M4 9h1M6 9h1M14 9h1M1 11h1M8 11h2M13 11h1M0 12h3M4 12h1M6 12h1M8 12h8M0 13h4M5 13h7M13 13h3M0 14h2M3 14h1M5 14h1M7 14h3M11 14h1M13 14h1M15 14h1M0 15h16" />
<path stroke="#5f7d4a" d="M6 1h1M13 1h1M4 2h1M6 2h1M8 2h1M11 2h1M13 2h1M15 2h1M3 12h1M5 12h1M7 12h1M4 13h1M12 13h1M2 14h1M4 14h1M6 14h1M10 14h1M12 14h1M14 14h1" />
<path stroke="#704f40" d="M0 4h3M5 4h4M11 4h2M14 4h2M0 5h1M2 5h6M9 5h7M0 6h16M0 7h2M3 7h4M8 7h5M14 7h2M0 8h11M13 8h3M0 9h2M3 9h1M5 9h1M7 9h7M15 9h1M0 10h16M0 11h1M2 11h6M10 11h3M14 11h2" />
</svg>