<svg xmlns="http://www.w3.org/2000/svg" viewBox="0 -0.5 16 16" shape-rendering="crispEdges">
<metadata>Made with Pixels to Svg https://codepen.io/shshaw/pen/XbxvNj</metadata>
<path stroke="#0c0c0c" d="M0 0h4M12 0h4M0 1h4M9 1h1M12 1h1M14 1h2M0 2h5M7 2h1M11 2h2M14 2h1M0 3h4M8 3h1M12 3h4M0 4h4M8 4h1M14 4h1M0 5h4M5 5h1M0 6h2M3 6h1M9 6h2M13 6h1M0 7h4M10 7h1M0 8h4M7 8h1M12 8h1M14 8h1M0 9h1M2 9h2M0 10h4M0 11h5M9 11h1M14 11h1M0 12h3M4 12h1M12 12h4M0 13h4M7 13h1M9 13h1M13 13h3M0 14h2M3 14h1M5 14h1M11 14h1M13 14h1M15 14h1M0 15h4M12 15h4" />
<path stroke="#704f40" d="M4 0h8M4 1h5M10 1h2M5 2h2M8 2h3M4 3h4M9 3h3M4 4h4M9 4h5M15 4h1M4 5h1M6 5h10M4 6h5M11 6h2M14 6h2M4 7h6M11 7h5M4 8h3M8 8h4M13 8h1M15 8h1M4 9h12M4 10h12M5 11h4M10 11h4M15 11h1M5 12h7M4 13h3M8 13h1M10 13h2M4 14h1M6 14h5M4 15h8" />
<path stroke="#5f7d4a" d="M13 1h1M13 2h1M15 2h1M2 6h1M1 9h1M3 12h1M12 13h1M2 14h1M12 14h1M14 14h1" />
</svg>