<svg xmlns="http://www.w3.org/2000/svg" viewBox="0 -0.5 16 16" shape-rendering="crispEdges">
<metadata>Made with Pixels to Svg https://codepen.io/shshaw/pen/XbxvNj</metadata>
<path stroke="#0c0c0c" d="M0 0h16M0 1h6M7 1h9M0 2h4M5 2h1M7 2h1M9 2h7M0 3h11M12 3h4M0 4h9M10 4h1M12 4h1M14 4h2M0 5h4M5 5h11M0 6h2M3 6h1M5 6h1M7 6h6M14 6h2M0 7h11M12 7h1M14 7h1M0 8h3M4 8h12M0 9h1M2 9h1M4 9h1M6 9h6M13 9h3M0 10h4M5 10h5M11 10h1M13 10h1M15 10h1M0 11h2M3 11h1M5 11h1M7 11h9M0 12h16M0 13h4M5 13h7M13 13h3M0 14h2M3 14h1M5 14h1M7 14h3M11 14h1M13 14h1M15 14h1M0 15h16" />
<path stroke="#5f7d4a" d="M6 1h1M4 2h1M6 2h1M8 2h1M11 3h1M9 4h1M11 4h1M13 4h1M4 5h1M2 6h1M4 6h1M6 6h1M13 6h1M11 7h1M13 7h1M15 7h1M3 8h1M1 9h1M3 9h1M5 9h1M12 9h1M4 10h1M10 10h1M12 10h1M14 10h1M2 11h1M4 11h1M6 11h1M4 13h1M12 13h1M2 14h1M4 14h1M6 14h1M10 14h1M12 14h1M14 14h1" />
</svg>