<svg xmlns="http://www.w3.org/2000/svg" viewBox="0 -0.5 16 16" shape-rendering="crispEdges">
<metadata>Made with Pixels to Svg https://codepen.io/shshaw/pen/XbxvNj</metadata>
<path stroke="#0c0c0c" d="M0 0h4M12 0h4M0 1h4M7 1h1M12 1h4M0 2h5M10 2h1M12 2h4M0 3h4M6 3h2M9 3h1M12 3h4M0 4h4M11 4h2M14 4h1M0 5h4M7 5h1M0 6h2M3 6h1M6 6h1M12 6h1M0 7h4M9 7h1M11 7h1M0 8h3M6 8h1M13 8h2M0 9h1M2 9h1M8 9h2M13 9h1M0 10h4M0 11h2M3 11h1M5 11h1M9 11h1M12 11h2M0 12h16M0 13h4M5 13h7M13 13h3M0 14h2M3 14h1M5 14h1M7 14h3M11 14h1M13 14h1M15 14h1M0 15h16" />
<path stroke="#704f40" d="M4 0h8M4 1h3M8 1h4M5 2h5M11 2h1M4 3h2M8 3h1M10 3h2M4 4h7M13 4h1M15 4h1M4 5h3M8 5h8M4 6h2M7 6h5M13 6h3M4 7h5M10 7h1M12 7h4M4 8h2M7 8h6M15 8h1M4 9h4M10 9h3M14 9h2M5 10h11M6 11h3M10 11h2M14 11h2" />
<path stroke="#5f7d4a" d="M2 6h1M3 8h1M1 9h1M3 9h1M4 10h1M2 11h1M4 11h1M4 13h1M12 13h1M2 14h1M4 14h1M6 14h1M10 14h1M12 14h1M14 14h1" />
</svg>