<svg xmlns="http://www.w3.org/2000/svg" viewBox="0 -0.5 16 16" shape-rendering="crispEdges">
<metadata>Made with Pixels to Svg https://codepen.io/shshaw/pen/XbxvNj</metadata>
<path stroke="#0c0c0c" d="M0 0h16M0 1h6M7 1h6M14 1h2M0 2h4M5 2h1M7 2h1M9 2h2M12 2h1M14 2h1M0 3h16M2 4h2M6 4h1M10 4h6M11 5h5M2 6h1M6 6h2M12 6h1M14 6h2M1 7h2M9 7h1M12 7h4M4 8h1M6 8h1M12 8h4M3 9h1M9 9h1M13 9h3M8 10h1M13 10h1M15 10h1M1 11h1M3 11h2M12 11h4M0 12h4M6 12h1M8 12h2M12 12h4M0 13h4M5 13h1M11 13h1M13 13h3M0 14h2M3 14h1M8 14h1M13 14h1M15 14h1M0 15h4M12 15h4" />
<path stroke="#5f7d4a" d="M6 1h1M13 1h1M4 2h1M6 2h1M8 2h1M11 2h1M13 2h1M15 2h1M13 6h1M12 9h1M12 10h1M14 10h1M12 13h1M2 14h1M12 14h1M14 14h1" />
<path stroke="#704f40" d="M0 4h2M4 4h2M7 4h3M0 5h11M0 6h2M3 6h3M8 6h4M0 7h1M3 7h6M10 7h2M0 8h4M5 8h1M7 8h5M0 9h3M4 9h5M10 9h2M0 10h8M9 10h3M0 11h1M2 11h1M5 11h7M4 12h2M7 12h1M10 12h2M4 13h1M6 13h5M4 14h4M9 14h3M4 15h8" />
</svg>