<svg xmlns="http://www.w3.org/2000/svg" viewBox="0 -0.5 16 16" shape-rendering="crispEdges">
<metadata>Made with Pixels to Svg https://codepen.io/shshaw/pen/XbxvNj</metadata>
<path stroke="#0c0c0c" d="M0 0h4M12 0h4M0 1h4M6 1h1M9 1h1M12 1h4M0 2h5M11 2h5M0 3h4M8 3h1M11 3h5M3 4h2M13 4h1M1 5h1M10 5h1M2 7h1M7 7h1M13 7h1M11 8h2M2 9h1M4 9h1M9 9h1M14 9h1M8 10h2M1 11h1M13 11h1M0 12h4M7 12h1M12 12h4M0 13h4M9 13h1M13 13h3M0 14h2M3 14h2M7 14h1M11 14h1M13 14h1M15 14h1M0 15h4M12 15h4" />
<path stroke="#704f40" d="M4 0h8M4 1h2M7 1h2M10 1h2M5 2h6M4 3h4M9 3h2M0 4h3M5 4h8M14 4h2M0 5h1M2 5h8M11 5h5M0 6h16M0 7h2M3 7h4M8 7h5M14 7h2M0 8h11M13 8h3M0 9h2M3 9h1M5 9h4M10 9h4M15 9h1M0 10h8M10 10h6M0 11h1M2 11h11M14 11h2M4 12h3M8 12h4M4 13h5M10 13h2M5 14h2M8 14h3M4 15h8" />
<path stroke="#5f7d4a" d="M12 13h1M2 14h1M12 14h1M14 14h1" />
</svg>