<svg xmlns="http://www.w3.org/2000/svg" viewBox="0 -0.5 16 16" shape-rendering="crispEdges">
<metadata>Made with Pixels to Svg https://codepen.io/shshaw/pen/XbxvNj</metadata>
<path stroke="#0c0c0c" d="M0 0h16M0 1h5M6 1h10M0 2h5M6 2h2M9 2h7M0 3h6M7 3h9M0 4h6M7 4h4M12 4h1M14 4h2M0 5h7M8 5h3M12 5h4M0 6h2M3 6h4M8 6h2M11 6h5M0 7h7M8 7h1M11 7h4M0 8h4M5 8h2M8 8h1M10 8h3M14 8h2M0 9h1M2 9h2M5 9h2M8 9h1M10 9h3M14 9h2M0 10h5M6 10h1M8 10h1M10 10h2M13 10h3M0 11h2M3 11h2M6 11h1M8 11h1M10 11h2M13 11h3M0 12h3M4 12h1M6 12h1M8 12h1M10 12h1M12 12h4M0 13h5M6 13h1M8 13h1M10 13h6M0 14h2M3 14h3M8 14h6M15 14h1M0 15h16" />
<path stroke="#93bf73" d="M5 1h1M5 2h1M6 3h1M6 4h1M11 4h1M7 5h1M11 5h1M7 6h1M10 6h1M7 7h1M9 7h2M4 8h1M7 8h1M9 8h1M13 8h1M4 9h1M7 9h1M9 9h1M13 9h1M5 10h1M7 10h1M9 10h1M12 10h1M2 11h1M5 11h1M7 11h1M9 11h1M12 11h1M3 12h1M5 12h1M7 12h1M9 12h1M11 12h1M5 13h1M7 13h1M9 13h1M6 14h2" />
<path stroke="#5f7d4a" d="M8 2h1M13 4h1M2 6h1M15 7h1M1 9h1M2 14h1M14 14h1" />
</svg>