<svg xmlns="http://www.w3.org/2000/svg" viewBox="0 -0.5 16 16" shape-rendering="crispEdges">
<metadata>Made with Pixels to Svg https://codepen.io/shshaw/pen/XbxvNj</metadata>
<path stroke="#0c0c0c" d="M0 0h16M0 1h6M7 1h9M0 2h4M5 2h1M7 2h1M9 2h7M0 3h16M0 4h5M6 4h5M12 4h4M0 5h5M6 5h4M11 5h5M0 6h2M3 6h3M7 6h3M11 6h5M0 7h6M7 7h2M10 7h2M14 7h2M0 8h3M4 8h2M8 8h1M10 8h1M12 8h4M0 9h1M2 9h2M5 9h2M8 9h1M10 9h1M12 9h4M0 10h4M5 10h2M8 10h1M10 10h1M12 10h4M0 11h5M6 11h1M8 11h1M10 11h1M12 11h1M14 11h2M0 12h2M3 12h2M6 12h1M8 12h1M10 12h1M12 12h2M15 12h1M0 13h2M3 13h2M6 13h1M8 13h1M10 13h1M12 13h1M15 13h1M0 14h3M4 14h1M6 14h1M8 14h1M10 14h1M13 14h3M0 15h16" />
<path stroke="#5f7d4a" d="M6 1h1M4 2h1M6 2h1M8 2h1M2 6h1M1 9h1" />
<path stroke="#93bf73" d="M5 4h1M11 4h1M5 5h1M10 5h1M6 6h1M10 6h1M6 7h1M9 7h1M12 7h2M3 8h1M6 8h2M9 8h1M11 8h1M4 9h1M7 9h1M9 9h1M11 9h1M4 10h1M7 10h1M9 10h1M11 10h1M5 11h1M7 11h1M9 11h1M11 11h1M13 11h1M2 12h1M5 12h1M7 12h1M9 12h1M11 12h1M14 12h1M2 13h1M5 13h1M7 13h1M9 13h1M11 13h1M13 13h2M3 14h1M5 14h1M7 14h1M9 14h1M11 14h2" />
</svg>