<svg xmlns="http://www.w3.org/2000/svg" viewBox="0 -0.5 16 16" shape-rendering="crispEdges">
<metadata>Made with Pixels to Svg https://codepen.io/shshaw/pen/XbxvNj</metadata>
<path stroke="#0c0c0c" d="M0 0h4M12 0h4M0 1h5M8 1h1M12 1h4M0 2h4M8 2h2M11 2h5M0 3h5M6 3h1M11 3h5M4 4h1M7 4h1M12 4h1M14 4h2M2 5h1M12 5h4M3 6h1M7 6h1M9 6h1M11 6h2M14 6h2M9 7h1M12 7h1M14 7h1M1 8h1M3 8h1M5 8h1M12 8h4M3 9h1M6 9h1M8 9h1M13 9h3M11 10h1M13 10h1M15 10h1M2 11h1M10 11h6M0 12h16M0 13h4M5 13h7M13 13h3M0 14h2M3 14h1M5 14h1M7 14h3M11 14h1M13 14h1M15 14h1M0 15h16" />
<path stroke="#704f40" d="M4 0h8M5 1h3M9 1h3M4 2h4M10 2h1M5 3h1M7 3h4M0 4h4M5 4h2M8 4h4M0 5h2M3 5h9M0 6h3M4 6h3M8 6h1M10 6h1M0 7h9M10 7h2M0 8h1M2 8h1M4 8h1M6 8h6M0 9h3M4 9h2M7 9h1M9 9h3M0 10h11M0 11h2M3 11h7" />
<path stroke="#5f7d4a" d="M13 4h1M13 6h1M13 7h1M15 7h1M12 9h1M12 10h1M14 10h1M4 13h1M12 13h1M2 14h1M4 14h1M6 14h1M10 14h1M12 14h1M14 14h1" />
</svg>