<svg xmlns="http://www.w3.org/2000/svg" viewBox="0 -0.5 16 16" shape-rendering="crispEdges">
<metadata>Made with Pixels to Svg https://codepen.io/shshaw/pen/XbxvNj</metadata>
<path stroke="#0c0c0c" d="M0 0h4M12 0h4M0 1h4M6 1h1M9 1h1M12 1h1M14 1h2M0 2h5M11 2h2M14 2h1M0 3h4M8 3h1M11 3h5M0 4h5M12 4h4M0 5h4M11 5h5M0 6h2M3 6h2M7 6h1M12 6h1M14 6h2M0 7h5M7 7h2M12 7h4M0 8h4M11 8h5M0 9h1M2 9h3M9 9h1M13 9h3M0 10h4M6 10h1M11 10h1M13 10h1M15 10h1M0 11h5M6 11h1M11 11h5M0 12h3M7 12h1M12 12h4M0 13h4M9 13h1M13 13h3M0 14h2M3 14h2M7 14h1M11 14h1M13 14h1M15 14h1M0 15h4M12 15h4" />
<path stroke="#704f40" d="M4 0h8M4 1h2M7 1h2M10 1h2M5 2h6M4 3h4M9 3h2M5 4h7M4 5h7M5 6h2M8 6h4M5 7h2M9 7h3M4 8h7M5 9h4M10 9h2M4 10h2M7 10h4M5 11h1M7 11h4M4 12h3M8 12h4M4 13h5M10 13h2M5 14h2M8 14h3M4 15h8" />
<path stroke="#5f7d4a" d="M13 1h1M13 2h1M15 2h1M2 6h1M13 6h1M1 9h1M12 9h1M12 10h1M14 10h1M3 12h1M12 13h1M2 14h1M12 14h1M14 14h1" />
</svg>